<svg id="Layer_1" data-name="Layer 1" xmlns="http://www.w3.org/2000/svg" xmlns:xlink="http://www.w3.org/1999/xlink" viewBox="0 0 152 152"><defs><style>.cls-1{fill:#414042;}.cls-2{fill:#bbac9b;}.cls-3{fill:#e6e7e8;}</style><symbol id="Logo" data-name="Logo" viewBox="0 0 1000 1000"><path class="cls-1" d="M500,0C224.3,0,0,224.3,0,500,0,764.87,207,982.26,467.77,998.93c10.66.68,21.4,1.07,32.23,1.07a501.28,501.28,0,0,0,81.14-6.62C818.39,954.5,1000,748.07,1000,500,1000,224.3,775.7,0,500,0ZM673,368.68c3.68,9.51,1.91,24.28-3.48,33.25-5.21,8.66-17.22,14.6-27.47,18.58-37.07,14.4-66.49,36.93-87,79.49-4-51.71-34.42-77.62-70.22-101.48-11.06-7.38-19-26.61-19.66-40.84-1.19-24.13,22.48-39.77,43.74-28.34,17.34,9.32,33.31,25.26,43.82,42.06,10.17,16.27,12.6,37.38,18.43,56.37,11.77-15.88,22-33.64,36.16-47.48,10.37-10.18,25.08-17.79,39.19-21.58C654.43,356.6,670.64,362.5,673,368.68Zm-20.48,555.9c1.36-2.56,2.67-5.17,3.9-7.83,25.33-54.67,17.34-115.83-15.56-159.08a306.23,306.23,0,0,0,7.75-70.51c-.07-61.3,6.42-112.22,48.23-161.8,39.49-46.82,40.82-109.9,36.43-170.23-.19-2.62-.48-5.26-.83-7.91A540.55,540.55,0,0,0,756,289.76a462.58,462.58,0,0,0,13.29-45.32,31,31,0,0,0,1.84-7.8c1-4.43,2.2-8.83,3-13.29,1.55-8.13-4.85-13.94-12.16-11.13-1.9.72-3.72,1.7-5.58,2.57-2.81,1.39-5.76,2.37-8.49,4-.55.33-1.11.64-1.65,1-3.83,1.93-7.91,3.24-11.47,5.91a78.1,78.1,0,0,0-11,5.72c-6.31,2.77-12.13,6.7-18.11,10.21q-20.53,12.07-40,26.22c-54-14.42-108.39-27.32-164.28-31.61a570.78,570.78,0,0,0-42.16-39.7,479.55,479.55,0,0,0-43.93-33.64c-2.45-2-4.84-4-7.79-5.25-4.43-2.95-8.76-6.08-13.31-8.83-8.3-5-18,.42-18.52,10.32-.14,2.57,0,5.15.07,7.73.15,3.92-.24,7.86.19,11.77a21.48,21.48,0,0,0,.34,2.39c.23,5.38-.36,10.8.84,16.12A98.24,98.24,0,0,0,378,212.7c-.07,8.68,1.4,17.22,2.33,25.8q3.15,29.1,9.07,57.72c-32.55,46.15-39.72,100.36-32.76,155.8,2.85,22.79-3.95,37.19-21.62,49.66-76.59,54-129,124.86-150.88,217.1-5.65,23.84-15,46-36.06,61.16-4.43-5.09-8.68-10.37-12.85-15.75-18.7-127.67,34.37-174,85.73-218.77,32-27.91,65.12-56.77,70.19-102.75,6.59-59.69-13.56-108.16-52.61-126.48-35.61-16.71-78.33-4.46-114.27,32.79a24.47,24.47,0,1,0,35.21,34c20.73-21.48,42.5-29.89,58.27-22.48,19.2,9,28.92,39.16,24.76,76.81-3,27-25.37,46.52-53.71,71.23C148.48,543.65,96.9,588.71,85,677.07A449.53,449.53,0,0,1,48.94,500c0-158,81.27-297,204.27-377.58,3.57-2.32,7.14-4.63,10.76-6.84.69-.43,1.37-.87,2.06-1.29A457.56,457.56,0,0,1,500.35,49H501c4.92,0,9.84.14,14.75.3a448.69,448.69,0,0,1,241.76,80.42,467.29,467.29,0,0,1,105,102l1.73,2.37c2.85,3.87,5.6,7.8,8.31,11.74q3.51,5.13,6.88,10.33l1,1.62A448.9,448.9,0,0,1,951.06,500C951.06,695.57,826.58,862.05,652.55,924.58Z"/><path class="cls-2" d="M880.5,257.69l-1-1.62q-3.37-5.2-6.88-10.33c-2.71-3.94-5.46-7.87-8.31-11.74l-1.73-2.37a467.29,467.29,0,0,0-105-102A448.69,448.69,0,0,0,515.77,49.25c-4.91-.16-9.83-.3-14.75-.3h-.67A457.56,457.56,0,0,0,266,114.29c-.69.42-1.37.86-2.06,1.29-3.62,2.21-7.19,4.52-10.76,6.84C130.21,203,48.94,342,48.94,500A449.53,449.53,0,0,0,85,677.07c11.86-88.36,63.44-133.42,103.73-168.54,28.34-24.71,50.72-44.23,53.71-71.23,4.16-37.65-5.56-67.8-24.76-76.81-15.77-7.41-37.54,1-58.27,22.48a24.47,24.47,0,1,1-35.21-34c35.94-37.25,78.66-49.5,114.27-32.79,39.05,18.32,59.2,66.79,52.61,126.48-5.07,46-38.18,74.84-70.19,102.75-51.36,44.77-104.43,91.1-85.73,218.77,4.17,5.38,8.42,10.66,12.85,15.75,21.08-15.13,30.41-37.32,36.06-61.16C206,626.54,258.4,555.68,335,501.68c17.67-12.47,24.47-26.87,21.62-49.66-7-55.44.21-109.65,32.76-155.8q-5.92-28.61-9.07-57.72c-.93-8.58-2.4-17.12-2.33-25.8a98.24,98.24,0,0,1-.85-15.53c-1.2-5.32-.61-10.74-.84-16.12a21.48,21.48,0,0,1-.34-2.39c-.43-3.91,0-7.85-.19-11.77,0-2.58-.21-5.16-.07-7.73.53-9.9,10.22-15.34,18.52-10.32,4.55,2.75,8.88,5.88,13.31,8.83,2.95,1.2,5.34,3.28,7.79,5.25a479.55,479.55,0,0,1,43.93,33.64,570.78,570.78,0,0,1,42.16,39.7c55.89,4.29,110.23,17.19,164.28,31.61q19.44-14.13,40-26.22c6-3.51,11.8-7.44,18.11-10.21a78.1,78.1,0,0,1,11-5.72c3.56-2.67,7.64-4,11.47-5.91.54-.4,1.1-.71,1.65-1,2.73-1.61,5.68-2.59,8.49-4,1.86-.87,3.68-1.85,5.58-2.57,7.31-2.81,13.71,3,12.16,11.13-.84,4.46-2,8.86-3,13.29a31,31,0,0,1-1.84,7.8A462.58,462.58,0,0,1,756,289.76a540.55,540.55,0,0,1-23.52,57.46c.35,2.65.64,5.29.83,7.91,4.39,60.33,3.06,123.41-36.43,170.23-41.81,49.58-48.3,100.5-48.23,161.8a306.23,306.23,0,0,1-7.75,70.51c32.9,43.25,40.89,104.41,15.56,159.08-1.23,2.66-2.54,5.27-3.9,7.83,174-62.53,298.51-229,298.51-424.58A448.9,448.9,0,0,0,880.5,257.69Z"/><path class="cls-2" d="M646.59,358.71c-14.11,3.79-28.82,11.4-39.19,21.58-14.11,13.84-24.39,31.6-36.16,47.48-5.83-19-8.26-40.1-18.43-56.37-10.51-16.8-26.48-32.74-43.82-42.06-21.26-11.43-44.93,4.21-43.74,28.34.69,14.23,8.6,33.46,19.66,40.84,35.8,23.86,66.27,49.77,70.22,101.48,20.46-42.56,49.88-65.09,87-79.49,10.25-4,22.26-9.92,27.47-18.58,5.39-9,7.16-23.74,3.48-33.25C670.64,362.5,654.43,356.6,646.59,358.71Z"/></symbol></defs><path class="cls-3" d="M1273.71-23.32V1249.54H-461.18V-23.32H1273.71m4-4H-465.18V1253.54H1277.71V-27.32Z"/><use width="1000" height="1000" transform="translate(1.27 1.78) scale(0.15 0.15)" xlink:href="#Logo"/></svg>